<?xml version="1.0" encoding="UTF-8"?>
<svg width="384px" height="100px" viewBox="0 0 384 100" version="1.1" xmlns="http://www.w3.org/2000/svg" xmlns:xlink="http://www.w3.org/1999/xlink">
    <!-- Generator: Sketch 57.1 (83088) - https://sketch.com -->
    <title>Wordmark / White@1x</title>
    <desc>Created with Sketch.</desc>
    <defs>
        <path d="M309.768604,72.2198791 C310.193036,71.6305979 310.81826,71.0892396 311.644215,70.596022 C312.932557,69.7844386 314.256926,69.3771565 315.614735,69.3771565 C317.244026,69.3771565 318.057516,69.8504221 318.057516,70.7977662 C318.057516,71.6104336 317.989,72.38828 317.854687,73.1321185 C317.718743,73.877854 317.650771,74.31806 317.650771,74.4519238 C317.650771,75.7377213 318.263607,76.8369493 319.483842,77.7486596 C320.704212,78.6630797 322.13217,79.1213059 323.761325,79.1213059 C326.409653,79.1213059 329.192701,78.0399625 332.11183,75.8715851 C334.964482,73.6411534 336.388769,71.4746728 336.388769,69.3771565 C336.388769,67.1438796 335.639989,65.7919632 334.148817,65.3157168 C333.539788,65.0490731 331.566966,64.912364 328.242723,64.912364 C327.834347,64.912364 327.325101,64.9612758 326.715935,65.0641124 C326.103234,65.1639684 325.356085,65.2818444 324.472449,65.4185536 C323.660998,65.5552627 322.947835,65.6740871 322.33663,65.7748915 C321.725425,65.8747474 321.249076,65.9247431 320.910168,65.9247431 C314.80179,65.9247431 311.744677,63.1523525 311.744677,57.6024228 C311.744677,52.4615365 313.948468,48.0627274 318.361759,44.4104666 C322.845333,40.75658 328.242723,38.9277399 334.555562,38.9277399 C341.749999,38.9277399 345.35048,40.9602211 345.35048,45.0177315 C345.35048,45.8303989 345.129026,46.6090583 344.68612,47.3538452 C344.245389,48.0995806 343.653216,48.7244592 342.906068,49.2309198 C342.156879,49.7390062 341.307636,50.1453399 340.357659,50.4478884 C339.410264,50.7551791 338.424669,50.9070631 337.404544,50.9070631 C335.639989,50.9070631 334.760022,50.163089 334.760022,48.6727022 C334.760022,48.4700095 334.996429,47.929812 335.471146,47.048316 C335.944232,46.1698006 336.184853,45.5598259 336.184853,45.2213727 C336.184853,43.7336955 334.826499,42.989857 332.11183,42.989857 C330.550647,42.989857 329.105697,43.1934981 327.782825,43.5969864 C326.460632,44.0023717 325.305106,44.5802353 324.321007,45.3221769 C323.339218,46.0696737 322.554276,46.94846 321.979232,47.9628716 C321.402014,48.9771475 321.112589,50.0915504 321.112589,51.3124483 C321.112589,54.4234276 322.402971,55.979798 324.985365,55.979798 C325.390072,55.979798 326.88437,55.7762925 329.463095,55.3699588 C331.975342,54.965522 333.876385,54.7618809 335.168398,54.7618809 C341.546083,54.7618809 344.739275,57.5391491 344.739275,63.0843367 C344.739275,68.2277973 342.259245,72.862494 337.304761,76.9878848 C332.68633,80.7775323 328.038263,82.672627 323.356211,82.672627 C318.871006,82.672627 315.376833,81.9278396 312.864585,80.4411111 C310.973222,79.3212657 309.793668,77.8737725 309.326096,76.1004238 C308.413131,76.4498302 307.358652,76.8948561 306.148604,77.4705263 C302.627922,79.1457212 294.890254,82.9779123 290.953718,82.9779123 C286.405843,82.9779123 282.892638,81.4544657 280.416415,78.4075732 C277.938017,75.366371 276.696984,70.9675619 276.696984,65.2149396 C276.696984,58.3149903 279.143026,52.1561698 284.029539,46.7429492 C289.051996,41.3297286 294.757979,38.623999 301.137295,38.623999 C304.601152,38.623999 307.026395,39.2339737 308.420367,40.4510778 C309.809036,41.6708917 310.508877,43.7006631 310.508877,46.5412051 C310.508877,49.4542339 309.453271,52.4615637 307.351982,55.5736269 C305.518231,58.3499467 303.751501,60.3447617 302.054374,61.5628143 C301.174952,62.2376885 300.001889,62.9334282 298.541577,63.6424459 C297.07909,64.3533605 295.36701,65.1480077 293.399626,66.0285554 C290.002109,67.5849257 288.308653,68.4316009 288.308653,68.5653293 C288.308653,70.4613723 289.326603,72.0517506 291.361959,73.3356512 C292.924909,74.417943 294.551888,74.9581405 296.248607,74.9581405 C298.556396,74.9581405 306.328051,73.8663644 309.587584,72.3090456 C309.648978,72.2784699 309.709312,72.2487578 309.768604,72.2198791 Z M97.0682494,70.2580614 C96.8216302,68.712014 96.6984302,67.0309336 96.6984302,65.2149396 C96.6984302,58.3149903 99.1417544,52.1561698 104.030442,46.7429492 C109.055073,41.3297286 114.756707,38.623999 121.136022,38.623999 C124.600015,38.623999 127.025259,39.2339737 128.419638,40.4510778 C129.809939,41.6708917 130.506109,43.7006631 130.506109,46.5412051 C130.506109,49.4542339 129.454173,52.4615637 127.348534,55.5736269 C125.517639,58.3499467 123.752403,60.3447617 122.052558,61.5628143 C121.173815,62.2376885 120.002792,62.9334282 118.54248,63.6424459 C117.079992,64.3533605 115.368048,65.1480077 113.39781,66.0285554 C110.004507,67.5849257 108.307925,68.4316009 108.307925,68.5653293 C108.307925,70.4613723 109.324243,72.0517506 111.362998,73.3356512 C112.923636,74.417943 114.554423,74.9581405 116.24951,74.9581405 C118.557298,74.9581405 126.735834,71.914906 129.9936,70.3585357 C131.314012,69.7007833 132.355733,69.1762562 133.119024,68.7849184 C133.187848,68.2236676 133.26019,67.6429613 133.336045,67.0428043 L139.242682,20.6611519 C139.92186,14.9085296 142.434107,12.0312699 146.777523,12.0312699 C148.884114,12.0312699 149.798474,12.9815948 149.525498,14.8745216 L144.539746,49.0790358 C144.064486,52.3927077 144.267858,54.0528632 145.148776,54.0528632 C146.506043,54.0528632 148.406134,52.7330579 150.853128,50.0924988 C154.787489,45.8303989 157.129398,43.3942938 157.880218,42.7871644 C160.935835,40.1474183 163.886774,38.827613 166.737931,38.827613 C169.047894,38.827613 170.201788,39.9100403 170.201788,42.0763853 C170.201788,43.9693121 167.346961,46.5411779 161.648997,49.7898149 C155.943014,53.0357419 153.094032,55.2690189 153.094032,56.4861231 C153.094032,57.1639781 154.248062,58.89093 156.555306,61.66454 C159.202003,64.845432 173.895662,86.3133708 175.332049,87.8877618 C182.04062,95.2449886 179.549036,97.4396513 179.549036,97.4396513 C177.649488,99.7399955 177.025505,100 175.598091,100 C173.495307,100 170.507119,96.5497548 166.638556,89.6468246 C165.959379,88.2931466 151.644868,67.8507294 150.968953,66.5630352 C150.968953,66.5630352 147.583536,61.8569354 144.944316,60.5483757 C142.305097,59.2399515 143.113828,61.9691209 142.910456,64.8095272 C142.568556,70.1548675 142.262681,73.5713762 141.992833,75.0608146 C141.790548,76.4165247 141.55047,77.4611504 141.281845,78.2078343 C140.669009,80.1705383 139.92186,81.2867027 139.041893,81.5572754 C136.255038,82.3670977 134.626426,82.7743799 134.152662,82.7743799 C132.79322,82.7743799 132.114043,81.72596 132.114043,79.6274955 C132.114043,78.2670253 132.311514,75.8272942 132.704318,72.3103442 C129.733114,74.2584361 125.238783,77.0367166 121.647988,79.628471 C118.454388,81.8599864 114.891156,82.9779123 110.953534,82.9779123 C106.406337,82.9779123 102.893541,81.4544657 100.414191,78.4075732 C99.233964,76.9599699 98.3354135,75.2047694 97.7177943,73.1423807 C94.7710869,74.905788 90.7379658,77.2672751 87.466,79.628471 C84.2724005,81.8599864 80.7080803,82.9779123 76.7726333,82.9779123 C72.223806,82.9779123 68.7104654,81.4544657 66.2322035,78.4075732 C63.7569324,75.366371 62.516442,70.9675619 62.516442,65.2149396 C62.516442,58.3149903 64.9592225,52.1561698 69.8484539,46.7429492 C74.8719981,41.3297286 80.5747195,38.623999 86.9551223,38.623999 C90.4195226,38.623999 92.845854,39.2339737 94.2366988,40.4510778 C95.6268637,41.6708917 96.3252086,43.7006631 96.3252086,46.5412051 C96.3252086,49.4542339 95.2721853,52.4615637 93.1687212,55.5736269 C91.3345626,58.3499467 89.5704161,60.3447617 87.8705704,61.5628143 C86.9927783,62.2376885 85.8208039,62.9334282 84.3604918,63.6424459 C82.8990925,64.3533605 81.1849723,65.1480077 79.219628,66.0285554 C75.821568,67.5849257 74.1264804,68.4316009 74.1264804,68.5653293 C74.1264804,70.4613723 75.1422551,72.0517506 77.179922,73.3356512 C78.7405609,74.417943 80.3713467,74.9581405 82.0696972,74.9581405 C84.3763974,74.9581405 92.5962603,72.4250248 95.851987,70.8656737 C96.2877718,70.6486092 96.6931894,70.4460732 97.0682494,70.2580614 Z M205.585149,67.4408616 C205.632148,67.0676603 205.680389,66.6977429 205.729922,66.3311174 C206.272611,61.3930592 206.813804,57.1478955 207.358668,53.5929163 C207.899727,50.0415954 208.444591,47.1858787 208.985649,45.0177723 C209.664961,41.9076058 211.702492,40.3510999 215.096338,40.3510999 C216.792921,40.3510999 217.746705,41.1637673 217.94899,42.787205 C217.94899,42.9908461 217.912829,43.3114147 217.846488,43.7487755 C217.778516,44.1908785 217.710544,44.6614343 217.642572,45.1703336 C217.5746,45.6785556 217.504588,46.1697058 217.438112,46.6429714 C217.371771,47.116237 217.336154,47.4537418 217.336154,47.6573828 C217.336154,48.6058109 217.610217,49.0790765 218.151275,49.0790765 C218.217752,49.0790765 220.052454,47.5913993 223.650624,44.6142838 C227.24893,41.6362199 230.168058,40.1465105 232.407874,40.1465105 C233.629876,40.1465105 234.650001,40.7245096 235.462947,41.8735979 C236.280787,43.0228217 236.685357,44.2070018 236.685357,45.4231575 C236.685357,47.9967846 236.617385,50.619459 236.483072,53.2911807 C236.342914,55.9646638 236.142124,58.722286 235.869692,61.5628278 C235.599435,64.4060795 235.393344,66.6045357 235.259031,68.1581962 C235.120912,69.7174119 235.058378,70.7318234 235.058378,71.205089 C235.058378,71.6774061 235.120912,72.2364367 235.259031,72.8802838 C235.393344,73.5222341 235.565449,74.1483321 235.769909,74.7554614 C235.973826,75.3663845 236.142124,75.9404545 236.280787,76.480652 C236.412925,77.0246432 236.483072,77.4309768 236.483072,77.6987045 C236.483072,78.6471325 235.565449,79.8311772 233.730203,81.2538188 C231.967143,82.6038387 230.504656,83.2815584 229.352937,83.2815584 C228.198499,83.2815584 227.195911,82.7752335 226.348299,81.7600086 C225.499192,80.7437005 225.077086,79.5246994 225.077086,78.1040897 C225.077086,76.5504292 225.230566,74.623359 225.53481,72.3203048 C225.839597,70.0218573 226.263335,67.3154502 226.808199,64.2014901 C227.962092,57.8417383 228.537272,53.8153904 228.537272,52.1231239 C228.537272,50.3667707 227.792163,49.4863585 226.299495,49.4863585 C223.989533,49.4863585 221.681609,51.1096608 219.375316,54.3564009 C215.843487,59.2963559 213.735809,66.7383995 213.060302,76.6842931 C212.924358,78.1040897 212.821857,78.9534748 212.756059,79.2221509 C212.551599,79.6973133 212.17721,80.2044517 211.636152,80.7437005 C211.229271,81.0171187 210.375949,81.2867435 209.087607,81.5573162 C207.59494,81.8937374 206.745832,82.0635059 206.541372,82.0635059 C205.048706,82.0635059 204.305227,81.2867435 204.305227,79.7313212 C204.571814,77.2914225 204.812299,74.9572056 205.016759,72.7275869 C205.069012,72.1555568 205.123291,71.5900746 205.179746,71.0311632 C203.772291,72.3216161 201.27381,74.2626255 197.684856,76.8548611 C194.49547,79.0882735 186.50073,82.9779123 182.562564,82.9779123 C178.014825,82.9779123 174.50162,81.4544657 172.023766,78.4075732 C169.545504,75.366371 168.307053,70.9675619 168.307053,65.2149396 C168.307053,58.3149903 170.750377,52.1561698 175.639065,46.7429492 C180.660434,41.3297286 186.36533,38.623999 192.746277,38.623999 C196.207551,38.623999 198.631707,39.2339737 200.025134,40.4510778 C201.414755,41.6708917 202.113644,43.7006631 202.113644,46.5412051 C202.113644,49.4542339 201.05899,52.4615637 198.955118,55.5736269 C197.124086,58.3499467 195.357356,60.3447617 193.663899,61.5628143 C192.782302,62.2376885 191.611414,62.9334282 190.150015,63.6424459 C188.688616,64.3533605 186.974496,65.1480077 185.009151,66.0285554 C181.610955,67.5849257 179.916003,68.4316009 179.916003,68.5653293 C179.916003,70.4613723 180.936128,72.0517506 182.971484,73.3356512 C184.533347,74.417943 186.16087,74.9581405 187.858133,74.9581405 C190.163882,74.9581405 197.379525,71.4068196 200.636883,69.8504492 C203.893153,68.2278244 205.455423,67.4152926 205.321111,67.4152926 C205.41446,67.4152926 205.502475,67.4238174 205.585149,67.4408616 Z M84.3100566,42.8870474 C81.2560715,42.8870474 78.4028756,45.0554248 75.7556351,49.3835083 C73.3102717,53.3759837 72.0893573,56.9300145 72.0893573,60.039368 C72.0893573,62.0030204 72.7021935,62.9824755 73.9225641,62.9824755 C75.6882068,62.9824755 78.1627982,61.5947899 81.3569419,58.8221283 C85.3583222,55.236935 87.3624112,51.2792804 87.3624112,46.9484871 C87.3624112,44.2446544 86.3464999,42.8870474 84.3100566,42.8870474 Z M190.099036,42.8870474 C187.04342,42.8870474 184.191855,45.0554248 181.54679,49.3835083 C179.102378,53.3759837 177.877929,56.9300145 177.877929,60.039368 C177.877929,62.0030204 178.489678,62.9824755 179.712087,62.9824755 C181.476643,62.9824755 183.953409,61.5947899 187.144969,58.8221283 C191.151516,55.236935 193.155061,51.2792804 193.155061,46.9484871 C193.155061,44.2446544 192.137111,42.8870474 190.099036,42.8870474 Z M298.490598,42.8870474 C295.434982,42.8870474 292.58233,45.0554248 289.939439,49.3835083 C287.495571,53.3759837 286.269491,56.9300145 286.269491,60.039368 C286.269491,62.0030204 286.882192,62.9824755 288.102562,62.9824755 C289.867661,62.9824755 292.343883,61.5947899 295.535444,58.8221283 C299.544165,55.236935 301.545671,51.2792804 301.545671,46.9484871 C301.545671,44.2446544 300.528129,42.8870474 298.490598,42.8870474 Z M118.492045,42.8870474 C115.434389,42.8870474 112.584863,45.0554248 109.937623,49.3835083 C107.49226,53.3759837 106.271345,56.9300145 106.271345,60.039368 C106.271345,62.0030204 106.883094,62.9824755 108.101289,62.9824755 C109.870194,62.9824755 112.344786,61.5947899 115.53893,58.8221283 C119.541397,55.236935 121.544398,51.2792804 121.544398,46.9484871 C121.544398,44.2446544 120.528488,42.8870474 118.492045,42.8870474 Z M279.419157,19.9502645 C278.876467,23.7382859 278.059171,29.3211397 276.974744,36.694219 C275.889367,44.0701436 275.07207,49.822766 274.531012,53.9500537 C273.989819,58.0803221 273.715347,60.5824107 273.715347,61.4609261 C273.715347,63.5595262 273.768366,65.5364567 273.870324,67.3972724 C273.970787,69.2593076 274.156079,71.0023828 274.43055,72.6239237 C274.700943,74.2483099 274.903772,75.4643301 275.039716,76.2788943 C275.17566,77.0906132 275.244176,77.4611775 275.244176,77.3932972 C275.244176,78.4085216 274.360539,79.595547 272.597479,80.9482759 C270.493607,82.301006 268.252024,82.9780475 265.87776,82.9780475 C265.198582,82.9780475 264.621364,82.3332523 264.145016,81.049081 C263.399497,79.2211889 263.025108,76.9247737 263.025108,74.148454 C263.025108,72.5900513 262.548215,71.8150501 261.600412,71.8150501 C260.989071,71.8150501 260.156958,72.4551035 259.105022,73.7421203 C258.049279,75.0279177 257.052537,76.3147991 256.100928,77.5969382 C253.520708,80.6438306 250.736028,82.1672772 247.750558,82.1672772 C244.831429,82.1672772 242.53846,81.0671008 240.875727,78.8667478 C239.208915,76.6692401 238.382103,73.5392922 238.382103,69.4789364 C238.382103,61.5628143 240.926706,54.5600284 246.017814,48.4700366 C251.112457,42.312029 256.918224,39.2339737 263.433484,39.2339737 C263.974541,39.2339737 264.585746,39.3330167 265.265059,39.5384191 C265.945732,39.7401633 266.384967,39.843 266.590922,39.843 C267.132116,39.843 267.572847,39.0322295 267.911076,37.4041851 L271.47757,15.7891043 C271.539698,15.3827706 271.816343,14.9773854 272.291061,14.5701033 C272.765778,14.1664795 273.357951,13.7772176 274.073288,13.4047563 C274.787947,13.0306692 275.546787,12.7458698 276.364084,12.5422288 C277.179204,12.3385877 277.994869,12.2366994 278.807952,12.2366994 C279.7616,12.2366994 280.236317,12.7778454 280.236317,13.8593243 C280.236317,14.1317941 279.962389,16.1623785 279.419157,19.9502645 Z M263.025108,43.9033557 C259.629222,43.9033557 256.301173,45.9302819 253.045447,49.993483 C249.379169,54.4582756 247.546098,59.53223 247.546098,65.215888 C247.546098,66.9779317 247.985198,68.4975844 248.870467,69.7852786 C249.751928,71.0693147 250.736028,71.7122134 251.823581,71.7122134 C253.926909,71.7122134 256.643753,69.7512708 259.96949,65.8249143 C264.179001,60.6822666 266.282465,54.6601553 266.282465,47.7572253 C266.282465,45.1892887 265.198582,43.9033557 263.025108,43.9033557 Z M375.44721,49.7898826 C369.743401,53.0356742 366.892244,55.2698996 366.892244,56.4861908 C366.892244,57.1640458 368.048313,58.8920817 370.354062,61.6646077 C373.004429,64.8453643 375.312897,66.8401793 377.28028,67.6528467 C381.216815,69.3440293 383.18651,71.1033633 383.18651,72.9284097 C383.18651,74.6224377 382.200915,76.6523445 380.231221,79.0193499 C378.330177,81.3206424 376.669075,82.4708146 375.244381,82.4708146 C373.137246,82.4708146 370.151777,79.0193499 366.28104,72.1176392 C365.601862,70.7657229 364.923229,69.4449691 364.244052,68.1580878 C363.566371,66.8741873 362.885698,65.5561433 362.208017,64.2015172 C360.851838,61.7645991 359.695769,60.548308 358.74416,60.548308 C357.592305,60.548308 356.914759,61.9700016 356.708668,64.8094595 C356.368264,70.1549353 356.063476,73.5713084 355.79322,75.0608824 C355.58876,76.416457 355.348683,77.4610827 355.080057,78.2077665 C354.468852,80.1706063 353.719527,81.2867707 352.841736,81.5582913 C350.055425,82.3670297 348.426134,82.7743119 347.951417,82.7743119 C346.591432,82.7743119 345.91443,81.726028 345.91443,79.6275633 C345.91443,77.6685174 346.322806,73.4714525 347.136297,67.0439559 L353.044565,20.6612196 C353.719527,14.9085973 356.233951,12.0321507 360.57723,12.0321507 C362.683277,12.0321507 363.596686,12.981527 363.32806,14.8745894 L358.337415,49.080052 C357.864737,52.3927755 358.069197,54.052931 358.946988,54.052931 C360.304798,54.052931 362.208017,52.7331257 364.652428,50.0924311 C368.589507,45.8295182 370.929241,43.3943616 371.67843,42.7870966 C374.734047,40.147486 377.684986,38.8276807 380.537638,38.8276807 C382.846106,38.8276807 384,39.9099726 384,42.0763176 C384,43.9703283 381.148843,46.5411102 375.44721,49.7898826 Z M10.2141318,86.2813413 C3.92195677,84.8191362 -0.699600616,74.0823892 0.0873800792,62.6337792 C1.1457053,47.2971563 2.94587776,34.8774916 5.29363327,26.717217 C7.26849396,19.8503273 9.08837831,17.9545552 9.5689409,17.8159491 C9.75056228,17.7763862 10.3150024,17.8263818 10.6888488,17.8263818 C11.4493204,17.8263818 12.1237393,17.8366791 12.5039751,17.896972 C16.9528834,18.5673751 17.109627,19.3186656 17.4568284,21.0183841 C17.5222175,21.3464047 17.5052245,22.2638055 17.0416549,24.8242902 L16.9800723,25.1682986 C16.1224006,30.0808847 15.0719602,35.4678202 14.1464523,40.2229673 C12.4614246,48.8773729 10.8774034,57.0196274 10.0893351,63.3407645 L9.59177954,67.332427 C9.54243178,67.7300894 9.75056228,68.1137962 10.1110861,68.2902038 C10.2444474,68.3561873 10.3871887,68.3891113 10.5300661,68.3891113 C10.7721826,68.3891113 11.0111724,68.2958944 11.19225,68.1185384 L14.069372,65.3006233 C24.933213,54.6581771 37.2553268,37.6757607 36.8788975,24.2907317 C37.2516564,24.4867853 37.5469271,24.6818905 37.8305066,24.8695438 C40.1828842,26.4175138 44.1226816,29.0118708 43.6722987,43.2472333 C43.59114,45.7444442 42.7568508,53.4034068 42.7473347,53.4787391 L42.2868918,57.7088636 C42.2423022,58.1123519 42.4637551,58.4987686 42.8354264,58.6675887 C42.9602232,58.7250364 43.0924969,58.7514569 43.2262659,58.7514569 C43.4842879,58.7514569 43.7366003,58.6459104 43.9202608,58.4479599 L46.8128805,55.3238381 C52.6643246,49.0055461 66.7186388,31.4177617 70.8744516,4.604347 C71.3630348,1.4557015 71.8149132,0.320568667 72.7511606,0 C80.0687627,2.25983297 81.2614003,6.68695942 81.3267899,6.97541702 C80.3034019,21.9734511 70.814908,41.6256924 50.5661626,70.6885073 C49.1153666,72.9417013 47.3285167,75.711382 45.696643,77.9720279 C43.3037541,81.2867835 42.435071,81.8298264 42.2194635,81.9174881 C37.6185697,81.5394723 34.772171,79.1617631 34.772171,68.7210611 L34.6617843,57.5713415 C34.6590655,57.1734082 34.4052577,56.8216769 34.0299159,56.6916067 C33.9268703,56.6558375 33.8216495,56.6379528 33.7176522,56.6379528 C33.4388307,56.6379528 33.1674862,56.7604356 32.9836897,56.9867034 L30.5260913,60.0052787 C24.7638266,67.0749966 20.7258774,72.6182874 17.533365,77.1103133 L17.0862446,77.740205 C14.1528418,81.87508 11.9941846,84.9162823 10.2141318,86.2813413 Z" id="path-1"></path>
    </defs>
    <g id="Wordmark-/-White" stroke="none" stroke-width="1" fill="none" fill-rule="evenodd">
        <mask id="mask-2" fill="white">
            <use xlink:href="#path-1"></use>
        </mask>
        <use id="logotype" fill="#FFFFFF" fill-rule="nonzero" xlink:href="#path-1"></use>
    </g>
</svg>